<?xml version="1.0" standalone="yes"?>
<svg xmlns="http://www.w3.org/2000/svg" width="480" height="610">
<path style="fill:#ffffff; stroke:none;" d="M0 0L0 610L480 610L480 0L0 0z"/>
<path style="fill:#010101; stroke:none;" d="M226 17C218.717 22.7379 204.914 22.7114 196 25.152C179.143 29.7674 162.806 36.9498 148 46.2291C82.9051 87.026 50.4549 173.249 83.3086 245C92.9125 265.974 105.798 285.293 123 300.83C129.049 306.294 148.221 315.845 149.512 324.015C151.403 335.974 145.283 353.013 143.424 365L129.424 455C121.898 503.525 127 555.902 127 605L368 605L368 511L368.812 473L352.884 406L333 325C348.84 319.234 363.308 305.744 374.999 294C441.952 226.748 431.436 115.998 359 57.4606C336.049 38.9131 306.299 25.3434 277 21.1312C261.39 18.8869 240.293 23.0565 226 17z"/>
<path style="fill:#f9edcb; stroke:none;" d="M170 240C189.809 247.641 209.828 253.899 231 256.166C253.339 258.557 275.634 255.01 297 248.341C301.974 246.789 314.018 245.278 316.882 240.49C318.9 237.117 315.514 230.439 314.63 227C311.453 214.646 307.982 202.372 304.873 190C296.216 155.539 286.096 121.445 277.374 87C272.894 69.3055 270.374 46.4045 262.146 30.1481C259.466 24.8538 233.571 25.0751 228.419 27.6034C222.177 30.6662 219.906 52.52 218.151 59C209.674 90.301 200.784 121.552 192.873 153C185.678 181.604 173.936 210.771 170 240z"/>
<path style="fill:#bfd1d9; stroke:none;" d="M270 28L300.116 142L326 238C347.245 231.075 367.513 220.845 388 212C393.975 209.42 407.216 206.198 410.821 200.606C413.343 196.695 412 189.456 412 185C412 170.84 410.913 157.76 407.37 144C390.652 79.0646 332.83 39.8379 270 28M163 236L179.576 173L218 29C157.24 31.6153 100.376 85.9623 84.2909 142C80.2857 155.953 79 169.555 79 184C79 188.204 77.7795 194.732 79.6034 198.61C82.1252 203.971 94.8313 207.321 100 209.576C119.172 217.94 142.028 233.898 163 236z"/>
<path style="fill:#f3a961; stroke:none;" d="M81 210C89.8719 275.885 148.511 320.507 208.961 335.839C224.297 339.729 240.184 339.025 256 339C260.683 338.992 269.793 339.671 273 336C287.531 339.67 311.37 327.819 324 321.167C367.944 298.022 399.844 260.206 410 211C395.67 215.127 381.652 223.108 368 229.14C328.005 246.81 283.704 266.918 239 264.961C197.195 263.13 157.511 243.844 120 227.139C107.245 221.459 94.493 213.69 81 210z"/>
<path style="fill:#ffffff; stroke:none;" d="M158 326L135 471L193 471L211 344L158 326M325 329C310.251 337.393 293.243 340.796 277 345C281.021 376.133 290.584 407.303 297.21 438C298.705 444.927 299.81 465.713 305.564 469.972C308.988 472.507 316.939 471 321 471L360 471C355.568 438.084 344.08 405.371 336.651 373C333.748 360.351 332.501 339.528 325 329M201 471L296 471L289.003 437L269 346L233 346.996L219.603 347.029L217.155 356L214 379L201 471z"/>
<path style="fill:#f9edcb; stroke:none;" d="M135 479L135 597L360 597L360 479L135 479z"/>
</svg>
