<?xml version="1.0" encoding="UTF-8" standalone="no"?>
<!-- Created with Inkscape (http://www.inkscape.org/) -->
<svg xmlns:svg="http://www.w3.org/2000/svg" xmlns="http://www.w3.org/2000/svg" xmlns:xlink="http://www.w3.org/1999/xlink" xmlns:inkscape="http://www.inkscape.org/namespaces/inkscape" version="1.1" width="235.34198" height="343.95935" id="svg4044">
  <defs id="defs4046">
    <pattern patternTransform="matrix(1.42145,-1.42145,10.76754,10.76754,214.83972,685.62072)" id="pattern6279" xlink:href="#Strips1_2"/>
    <pattern patternUnits="userSpaceOnUse" width="3" height="1" patternTransform="matrix(1.42145,-1.42145,10.76754,10.76754,215.54631,685.62072)" id="Strips1_2" inkscape:stockid="Stripes 1:2">
      <rect style="fill:black;stroke:none" x="0" y="-0.5" width="1" height="2" id="rect5458"/>
    </pattern>
    <pattern patternTransform="matrix(1.7520673,-1.7520673,5.0629812,5.0629812,219.80249,582.56595)" id="pattern6236" xlink:href="#Strips1_1"/>
    <pattern patternTransform="matrix(1.7520673,-1.7520673,5.0629812,5.0629812,219.80249,582.56595)" id="pattern6233" xlink:href="#Strips1_1"/>
    <pattern patternUnits="userSpaceOnUse" width="2" height="1" patternTransform="matrix(1.7520673,-1.7520673,5.0629812,5.0629812,219.80249,582.56595)" id="Strips1_1" inkscape:stockid="Stripes 1:1">
      <rect style="fill:black;stroke:none" x="0" y="-0.5" width="1" height="2" id="rect5446"/>
    </pattern>
    <pattern id="pattern4717" patternTransform="translate(359.93002,702.83386)" height="5.1131188" width="157.14835" patternUnits="userSpaceOnUse">
      <rect style="fill:#ffffff;fill-opacity:1;fill-rule:nonzero;stroke:none" id="rect4713" width="157.14835" height="5.1131177" x="0" y="0" ry="0"/>
      <rect ry="0" y="3.6762695" x="0" height="1.4368492" width="157.14835" id="rect4715" style="fill:#000000;fill-opacity:1;fill-rule:nonzero;stroke:none"/>
    </pattern>
  </defs>
  <g transform="translate(-237.10388,-362.91412)" id="layer1">
    <rect width="235.34198" height="343.95935" x="237.10388" y="362.91412" id="rect6273" style="fill:none;stroke:none"/>
    <use transform="matrix(-1,0,0,1,822.06611,0)" id="use6277" x="0" y="0" width="744.09448" height="1052.3622" xlink:href="#path4156"/>
    <path d="m 418.29341,384.90625 0,219.5 c -0.87988,0.98496 -1.41536,1.95254 -3.53125,2.9375 l 0.0625,24.25 c -1.23754,1.11589 -2.8327,1.73838 -4.6875,2.03125 l 0,28.5625 c 10.55052,0.10344 14.09375,-1.62647 14.09375,-3.34375 0,-2.85508 -2.58423,-1.0791 -3.15625,-2.59375 -0.62768,-1.66203 2.26444,-1.07619 10.09375,-3.5 3.87651,-1.2001 6.40281,-2.2187 8.0625,-3.4375 1.84402,-1.35415 2.90868,-2.31281 2.75,-5.84375 -0.10596,-2.3578 -2.59375,-3.8125 -2.59375,-3.8125 l -1.71875,-51.53125 0.5625,-26.90625 c 0.90217,-0.72841 1.30085,-2.07792 1.21875,-3.59375 l 12.53125,0.0937 c 0.34883,-5.80788 0.43755,-11.68302 0,-17.6875 -0.0932,-0.27964 -12.69741,0.27136 -12.59375,-0.5625 0.14124,-1.13611 -2.28125,-4 -2.28125,-4 l -1.15625,-3.4375 -4,-18.90625 c 0,0 -3.86653,-89.09375 -4.59375,-92.15625 -0.0255,-0.10752 1.8843,-0.93794 1.8125,-2.8125 -0.0718,-1.87455 -2.25875,-2.62022 -2.28125,-3.28125 -0.13757,-4.04997 -0.12598,-10.72023 -0.125,-13.53125 0.002,-5.75282 0.60515,-3.84669 1.75,-7.28125 1.14486,-3.43456 -0.003,-8.24007 -3.4375,-8.8125 -1.37705,-0.22951 -4.08207,-0.30737 -6.78125,-0.34375 z" id="path4707" style="fill:url(#pattern6279);fill-opacity:1;stroke:#000000;stroke-width:1px;stroke-linecap:butt;stroke-linejoin:miter;stroke-opacity:1"/>
    <use transform="matrix(-1,0,0,1,595.2458,0)" id="use6275" style="stroke:none" x="0" y="0" width="744.09448" height="1052.3622" xlink:href="#path4146"/>
    <path d="m 297.49916,694.65964 c 0,0 0.33209,-316.19886 0.33209,-316.19886 0,0 -4.08297,0 -11.66199,0 -7.14827,0 -6.55197,6.51067 -6.55197,22.93189 0,16.42121 -5.50931,105.27991 -8.03566,132.43807 -1.70051,18.28055 -3.78951,29.6845 -6.94744,30.94767 -3.15792,1.26317 -3.7895,5.05268 -3.7895,5.05268 0,0 -6.97235,-0.26625 -7.52687,0.28827 -0.36968,1.29389 -0.67795,23.05948 0.148,23.61955 0.20615,0.13979 7.55699,0.17722 7.55699,0.17722 l 1.71658,3.70472 c 0,0 -1.88964,30.98603 -3.15792,46.73731 -1.6349,20.30451 5.32093,31.6353 9.47377,39.78986 0,0 -5.59798,0.37176 -3.84923,2.9697 0.16236,0.2412 6.60563,7.42926 32.29315,7.54192 z" id="path4146" style="fill:#ffffff;stroke:#000000;stroke-width:1px;stroke-linecap:butt;stroke-linejoin:miter;stroke-opacity:1"/>
    <path d="m 260.88278,570.05289 0.0924,23.59228" id="path4148" style="fill:none;stroke:#000000;stroke-width:1px;stroke-linecap:butt;stroke-linejoin:miter;stroke-opacity:1"/>
    <path d="m 307.125,378.46875 0,273.5 c 0,0 -1.60849,4.56347 -9.4375,4.9375 l 0.0312,37.75 c 25.68757,-0.11266 32.11894,-7.29005 32.2813,-7.53125 1.74875,-2.59794 -3.84375,-2.96875 -3.84375,-2.96875 4.15284,-8.15456 11.10365,-19.50799 9.46875,-39.8125 -1.26828,-15.75128 -3.15625,-46.71875 -3.15625,-46.71875 l 1.71875,-3.71875 c 0,0 7.35635,-0.0165 7.5625,-0.15625 0.82595,-0.56007 0.52593,-22.33111 0.15625,-23.625 -0.55452,-0.55452 -7.53125,-0.28125 -7.53125,-0.28125 0,0 -0.65458,-3.79933 -3.8125,-5.0625 -3.15793,-1.26317 -5.23699,-12.65695 -6.9375,-30.9375 -2.52635,-27.15816 -8.03125,-116.01629 -8.03125,-132.4375 0,-16.42122 0.58577,-22.9375 -6.5625,-22.9375 l -1.90625,0 z" id="path4152" style="fill:url(#Strips1_2);fill-opacity:1;stroke:#000000;stroke-width:1px;stroke-linecap:butt;stroke-linejoin:miter;stroke-opacity:1"/>
    <path d="m 411.57489,384.91249 c 0,0 -11.44853,-0.23875 -14.88309,0.33367 -3.43456,0.57243 -4.57942,5.3906 -3.43456,8.82516 1.14485,3.43456 1.74525,1.5245 1.74724,7.27732 9.8e-4,2.81102 -0.008,9.47556 -0.14557,13.52553 -0.0225,0.66103 -2.18084,1.3945 -2.25262,3.26905 -0.0718,1.87456 1.82133,2.72464 1.7958,2.83216 -0.72722,3.0625 -4.57942,92.16072 -4.57942,92.16072 l -4.00698,18.89009 -1.14486,3.43456 c 0,0 -2.43094,2.87088 -2.2897,4.00699 0.10366,0.83386 -12.50018,0.29279 -12.59339,0.57243 -0.43755,6.00448 -0.36743,11.88203 -0.0186,17.68991 l 12.53808,-0.0924 c -0.0821,1.51583 0.31655,2.85389 1.21872,3.5823 l 0.57243,26.90406 -1.71728,51.51841 c 0,0 -2.49406,1.48346 -2.60002,3.84126 -0.15868,3.53094 0.90763,4.47355 2.75165,5.8277 1.65969,1.2188 4.1927,2.24857 8.06921,3.44867 7.82931,2.42381 10.72449,1.82072 10.09681,3.48275 -0.57202,1.51465 -3.17244,-0.25506 -3.17244,2.60002 0,1.71728 3.53917,3.43456 14.08969,3.33112 l -0.0411,-277.26146 -4e-5,0 z" id="path4156" style="fill:#ffffff;stroke:#000000;stroke-width:1px;stroke-linecap:butt;stroke-linejoin:miter;stroke-opacity:1"/>
    <g id="g4694">
      <path d="m 364.47481,421.67359 4.54511,0 m -4.76155,26.83782 4.97798,0 m -4.97798,28.78571 4.97798,0 0,-82.46134 -5.41085,0" id="path4164" style="fill:none;stroke:#000000;stroke-width:2;stroke-linecap:butt;stroke-linejoin:miter;stroke-miterlimit:4;stroke-opacity:1;stroke-dasharray:none"/>
      <text x="351.05591" y="480.9765" id="text4678" xml:space="preserve" style="font-size:14px;fill:#000000;stroke:none"><tspan x="351.05591" y="480.9765" id="tspan4680">0</tspan></text>
      <text x="351.05591" y="453.48938" id="text4682" xml:space="preserve" style="font-size:14px;fill:#000000;stroke:none"><tspan x="351.05591" y="453.48938" id="tspan4684">1´</tspan></text>
      <text x="351.05591" y="427.73373" id="text4686" xml:space="preserve" style="font-size:14px;fill:#000000;stroke:none"><tspan x="351.05591" y="427.73373" id="tspan4688">2´</tspan></text>
      <text x="351.05591" y="399.16446" id="text4690" xml:space="preserve" style="font-size:14px;fill:#000000;stroke:none"><tspan x="351.05591" y="399.16446" id="tspan4692">3´</tspan></text>
    </g>
    <path d="m 394.97264,415.09328 16.4824,0" id="path6247" style="fill:none;stroke:#000000;stroke-width:1px;stroke-linecap:butt;stroke-linejoin:miter;stroke-opacity:1"/>
    <path d="m 394.61981,420.78903 16.73442,0" id="path6249" style="fill:none;stroke:#000000;stroke-width:1px;stroke-linecap:butt;stroke-linejoin:miter;stroke-opacity:1"/>
    <path d="m 390.07129,513.08124 21.36936,0" id="path6251" style="fill:none;stroke:#000000;stroke-width:1px;stroke-linecap:butt;stroke-linejoin:miter;stroke-opacity:1"/>
    <path d="m 385.99071,531.71231 25.34256,0" id="path6253" style="fill:none;stroke:#000000;stroke-width:1px;stroke-linecap:butt;stroke-linejoin:miter;stroke-opacity:1"/>
    <path d="m 382.28597,557.59178 0,-17.93308" id="path6255" style="fill:none;stroke:#000000;stroke-width:1px;stroke-linecap:butt;stroke-linejoin:miter;stroke-opacity:1"/>
    <path d="m 383.68196,561.13544 c 8.27673,-8.40251 6.61502,-17.11955 0.91276,-25.6647" id="path6257" style="fill:none;stroke:#000000;stroke-width:1px;stroke-linecap:butt;stroke-linejoin:miter;stroke-opacity:1"/>
    <path d="m 384.31118,588.4581 26.99642,0" id="path6259" style="fill:none;stroke:#000000;stroke-width:1px;stroke-linecap:butt;stroke-linejoin:miter;stroke-opacity:1"/>
    <path d="m 400.9736,655.73411 10.03421,0" id="path6261" style="fill:none;stroke:#000000;stroke-width:1px;stroke-linecap:butt;stroke-linejoin:miter;stroke-opacity:1"/>
    <path d="m 381.61625,648.46523 c 8.62194,-0.71931 19.48903,-0.31604 29.23354,-0.47406" id="path6263" style="fill:none;stroke:#000000;stroke-width:1px;stroke-linecap:butt;stroke-linejoin:miter;stroke-opacity:1"/>
    <path d="m 382.32734,639.85319 c 4.79762,2.68335 18.83466,1.28555 28.52245,1.81722" id="path6265" style="fill:none;stroke:#000000;stroke-width:1px;stroke-linecap:butt;stroke-linejoin:miter;stroke-opacity:1"/>
    <rect width="23.712606" height="39.746845" x="400.17847" y="600.24182" id="rect6267" style="fill:none;stroke:#ff0000;stroke-width:3;stroke-miterlimit:4;stroke-opacity:1;stroke-dasharray:none"/>
    <path d="m 297.85885,378.45993 9.26103,0" id="path6269" style="fill:none;stroke:#000000;stroke-width:1px;stroke-linecap:butt;stroke-linejoin:miter;stroke-opacity:1"/>
    <path d="m 411.5545,384.90013 7.5772,0" id="path6271" style="fill:none;stroke:#000000;stroke-width:1px;stroke-linecap:butt;stroke-linejoin:miter;stroke-opacity:1"/>
  </g>
</svg>