<svg width="480" height="610" version="1.1" xmlns="http://www.w3.org/2000/svg"><path fill="rgb(190,209,216)" stroke="rgb(190,209,216)" stroke-width="1" opacity="1" d="M 270 28 Q 335.4 39.3 372 80.5 Q 391.3 101.2 403 129.5 L 411 158.5 Q 409.2 164.7 412 166.5 L 412 199.5 L 411 202 L 326.5 238 L 323 229.5 L 321 218.5 L 319 214.5 L 317 203.5 L 315 199.5 L 313 188.5 L 311 184.5 L 309 173.5 L 307 169.5 L 270 28 Z "></path><path fill="rgb(190,209,216)" stroke="rgb(190,209,216)" stroke-width="1" opacity="1" d="M 213.5 29 Q 218.9 27.1 218 30.5 L 177 183.5 L 175 187.5 L 170 209.5 L 168 213.5 L 163 236 L 159.5 236 L 142.5 229 L 79 200 L 79 166.5 L 82 149.5 L 87 132.5 Q 101.4 95.4 128.5 71 Q 147.5 53.5 172.5 42 Q 190.8 33.3 213.5 29 Z "></path><path fill="rgb(0,0,0)" stroke="rgb(0,0,0)" stroke-width="1" opacity="1" d="M 226.5 17 L 228.5 19 L 263.5 19 L 264.5 20 L 278.5 21 L 313.5 31 Q 354.2 47.8 381 78.5 Q 403.6 103.9 415 140.5 L 420 165.5 L 420 205.5 L 418 208.5 L 417 217.5 L 410 240.5 L 399 262.5 Q 385.4 285.9 365.5 303 Q 351.1 316.1 333 325.5 L 367 462.5 L 369 477.5 L 368 478.5 L 368 605 L 127 605 L 127 468.5 L 129 461.5 L 129 455.5 L 131 448.5 L 131 442.5 L 136 416.5 L 136 410.5 L 141 384.5 L 141 378.5 L 143 371.5 L 143 365.5 L 145 358.5 L 145 352.5 L 148 339.5 L 150 321.5 Q 127.4 307.1 110 287.5 Q 87.4 262.1 76 225.5 L 71 199.5 L 71 166.5 L 76 140.5 Q 82.1 120.1 92 103.5 Q 105.3 80.8 124.5 64 L 146.5 47 L 177.5 31 L 195.5 25 L 226 19 L 226.5 17 Z M 227 27 L 170 240 L 202 251 L 235 257 L 256 257 L 257 256 L 272 255 L 303 247 L 318 241 L 262 29 L 261 27 L 227 27 Z M 270 28 L 307 170 L 309 174 L 311 185 L 313 189 L 315 200 L 317 204 L 319 215 L 321 219 L 323 230 L 327 238 L 411 202 L 412 200 L 412 167 Q 409 165 411 159 L 403 130 Q 391 101 372 81 Q 335 39 270 28 Z M 214 29 Q 191 33 173 42 Q 147 53 129 71 Q 101 95 87 133 L 82 150 L 79 167 L 79 200 L 143 229 L 160 236 L 163 236 L 168 214 L 170 210 L 175 188 L 177 184 L 218 31 Q 219 27 214 29 Z M 81 210 Q 84 228 91 244 Q 102 267 118 285 Q 151 322 209 336 Q 214 334 213 338 L 226 338 L 227 339 L 264 339 L 265 338 L 273 338 L 273 337 L 275 337 Q 298 334 317 325 L 338 314 L 362 296 Q 398 265 410 211 L 347 239 L 316 251 L 287 260 L 266 264 L 257 264 L 256 265 L 226 264 L 194 257 L 168 247 L 163 247 L 160 244 L 139 236 L 81 210 Z M 158 326 L 155 341 L 153 360 L 150 373 L 146 405 L 138 450 L 136 469 L 135 470 L 136 471 L 193 471 L 211 344 L 196 341 L 178 335 L 158 326 Z M 326 329 Q 304 341 277 345 L 304 470 L 306 471 L 360 471 L 336 373 L 336 369 L 328 340 L 328 336 L 326 329 Z M 220 346 L 218 348 L 217 362 L 212 391 L 212 397 L 211 398 L 211 404 L 210 405 L 210 412 L 205 441 L 205 447 L 204 448 L 202 469 L 201 470 L 202 471 L 296 471 L 269 346 L 265 347 L 227 347 Q 225 345 220 346 Z M 135 479 L 135 597 L 360 597 L 360 479 L 338 480 L 341 481 Q 347 487 350 496 L 353 509 Q 355 534 344 547 Q 340 552 333 554 Q 323 555 319 550 Q 312 544 309 536 L 306 523 L 307 503 L 309 496 L 316 484 L 319 482 L 321 479 L 172 480 L 176 481 Q 183 487 186 497 L 189 510 Q 191 535 180 549 Q 176 554 170 556 L 163 556 L 157 553 Q 149 547 146 538 L 143 525 Q 142 499 152 486 L 160 480 L 135 479 Z M 328 482 L 324 484 L 317 491 L 313 500 L 311 509 Q 310 532 319 544 L 327 549 L 333 549 L 339 545 L 345 535 L 348 523 L 347 503 L 340 487 L 335 483 L 328 482 Z M 164 483 L 160 485 L 151 498 L 148 510 Q 146 533 156 546 L 164 551 Q 170 552 173 549 L 181 537 L 184 525 Q 186 501 176 489 L 169 483 L 164 483 Z "></path><path fill="rgb(0,0,0)" stroke="rgb(0,0,0)" stroke-width="1" opacity="1" d="M 242.5 480 L 251.5 481 L 261 489.5 Q 270.7 502.8 269 527.5 L 266 540.5 L 259 553 L 251.5 558 L 242.5 559 Q 233.9 556.6 230 549.5 Q 220.5 536.5 222 512.5 L 226 496.5 Q 229.6 488.1 236.5 483 L 242.5 480 Z "></path><path fill="rgb(70,104,104)" stroke="rgb(70,104,104)" stroke-width="1" opacity="1" d="M 327.5 482 L 334.5 483 L 340 487 L 347 502.5 L 348 522.5 L 345 534.5 L 338.5 545 L 332.5 549 L 326.5 549 L 319 544 Q 309.7 532 311 508.5 L 313 499.5 L 317 490.5 L 323.5 484 L 327.5 482 Z "></path><path fill="rgb(70,104,104)" stroke="rgb(70,104,104)" stroke-width="1" opacity="1" d="M 163.5 483 L 168.5 483 L 176 488.5 Q 185.6 500.9 184 524.5 L 181 536.5 L 172.5 549 Q 169.8 551.8 163.5 551 L 156 545.5 Q 146.4 533.1 148 509.5 L 151 497.5 L 159.5 485 L 163.5 483 Z "></path><path fill="rgb(248,237,202)" stroke="rgb(248,237,202)" stroke-width="1" opacity="1" d="M 227 27 L 260.5 27 L 262 28.5 L 318 240.5 L 302.5 247 L 271.5 255 L 256.5 256 L 255.5 257 L 234.5 257 L 201.5 251 L 170 240 L 227 27 Z "></path><path fill="rgb(248,237,202)" stroke="rgb(248,237,202)" stroke-width="1" opacity="1" d="M 135 479 L 160 479.5 L 152 485.5 Q 141.5 499 143 524.5 L 146 537.5 Q 149.3 547.2 156.5 553 L 162.5 556 L 169.5 556 Q 176.3 553.8 180 548.5 Q 190.8 535.3 189 509.5 L 186 496.5 Q 182.7 486.8 175.5 481 L 172 479.5 L 320.5 479 L 318.5 482 L 316 483.5 L 309 495.5 L 307 502.5 L 306 522.5 L 309 535.5 Q 312.3 544.3 318.5 550 Q 322.5 555 332.5 554 Q 340.1 552.1 344 546.5 Q 354.6 533.6 353 508.5 L 350 495.5 Q 346.8 486.8 340.5 481 L 338 479.5 L 360 479 L 360 597 L 135 597 L 135 479 Z M 243 480 L 237 483 Q 230 488 226 497 L 222 513 Q 221 536 230 550 Q 234 557 243 559 L 252 558 L 259 553 L 266 541 L 269 528 Q 271 503 261 490 L 252 481 L 243 480 Z "></path><path fill="rgb(243,169,96)" stroke="rgb(243,169,96)" stroke-width="1" opacity="1" d="M 81 210 L 138.5 236 L 159.5 244 L 162.5 247 L 167.5 247 L 193.5 257 L 225.5 264 L 255.5 265 L 256.5 264 L 265.5 264 L 286.5 260 L 315.5 251 L 346.5 239 L 410 211 Q 397.7 265 361.5 296 L 337.5 314 L 316.5 325 Q 298.2 333.7 274.5 337 L 273 336.5 L 272.5 338 L 264.5 338 L 263.5 339 L 226.5 339 L 225.5 338 L 213 338 Q 214.3 334.3 208.5 336 Q 151.3 322.2 118 284.5 Q 101.9 266.6 91 243.5 Q 84 228.3 81 210 Z "></path><path fill="rgb(255,255,255)" stroke="rgb(255,255,255)" stroke-width="1" opacity="1" d="M 0 0 L 480 0 L 480 610 L 0 610 L 0 0 Z M 227 17 L 226 19 L 196 25 L 178 31 L 147 47 L 125 64 Q 105 81 92 104 Q 82 120 76 141 L 71 167 L 71 200 L 76 226 Q 87 262 110 288 Q 127 307 150 322 L 148 340 L 145 353 L 145 359 L 143 366 L 143 372 L 141 379 L 141 385 L 136 411 L 136 417 L 131 443 L 131 449 L 129 456 L 129 462 L 127 469 L 127 605 L 368 605 L 368 479 L 369 478 L 367 463 L 333 326 Q 351 316 366 303 Q 385 286 399 263 L 410 241 L 417 218 L 418 209 L 420 206 L 420 166 L 415 141 Q 404 104 381 79 Q 354 48 314 31 L 279 21 L 265 20 L 264 19 L 229 19 L 227 17 Z "></path><path fill="rgb(255,255,255)" stroke="rgb(255,255,255)" stroke-width="1" opacity="1" d="M 158 326 L 177.5 335 L 195.5 341 L 211 344 L 193 471 L 135.5 471 L 135 469.5 L 136 468.5 L 138 449.5 L 146 404.5 L 150 372.5 L 153 359.5 L 155 340.5 L 158 326 Z "></path><path fill="rgb(255,255,255)" stroke="rgb(255,255,255)" stroke-width="1" opacity="1" d="M 325.5 329 L 328 335.5 L 328 339.5 L 336 368.5 L 336 372.5 L 360 471 L 305.5 471 L 304 469.5 L 277 345 Q 304.2 340.6 325.5 329 Z "></path><path fill="rgb(255,255,255)" stroke="rgb(255,255,255)" stroke-width="1" opacity="1" d="M 219.5 346 Q 225 344.5 226.5 347 L 264.5 347 L 269 346 L 296 471 L 201.5 471 L 201 469.5 L 202 468.5 L 204 447.5 L 205 446.5 L 205 440.5 L 210 411.5 L 210 404.5 L 211 403.5 L 211 397.5 L 212 396.5 L 212 390.5 L 217 361.5 L 218 347.5 L 219.5 346 Z "></path></svg>