<?xml version="1.0" standalone="no"?>
<!DOCTYPE svg PUBLIC "-//W3C//DTD SVG 20010904//EN"
 "http://www.w3.org/TR/2001/REC-SVG-20010904/DTD/svg10.dtd">
<svg version="1.0" xmlns="http://www.w3.org/2000/svg"
 width="480.000000pt" height="610.000000pt" viewBox="0 0 480.000000 610.000000"
 preserveAspectRatio="xMidYMid meet">
<metadata>
Created by potrace 1.16, written by Peter Selinger 2001-2019
</metadata>
<g transform="translate(0.000000,610.000000) scale(0.100000,-0.100000)"
fill="#000000" stroke="none">
<path d="M2260 5923 c0 -6 -12 -13 -27 -15 -105 -18 -253 -54 -344 -84 -611
-197 -1058 -696 -1160 -1295 -30 -172 -23 -442 14 -599 91 -384 314 -719 634
-953 47 -34 95 -69 106 -78 20 -16 20 -18 -97 -765 l-116 -749 0 -667 0 -668
1205 0 1204 0 3 668 3 667 -176 730 -176 730 35 20 c89 52 246 171 330 250
236 223 390 492 474 830 20 80 23 116 23 315 0 199 -3 237 -23 329 -102 455
-386 838 -800 1080 -196 114 -426 194 -655 226 -56 8 -176 15 -267 15 -116 0
-170 4 -178 12 -8 8 -12 8 -12 1z m637 -1158 c155 -583 281 -1065 279 -1071
-2 -6 -62 -29 -133 -52 -423 -138 -707 -146 -1077 -32 -113 34 -236 78 -255
89 -10 7 45 223 263 1037 152 566 282 1044 287 1062 l11 32 171 -2 172 -3 282
-1060z m-72 1030 c334 -70 690 -271 898 -508 184 -210 294 -413 359 -667 28
-104 31 -133 35 -315 2 -110 0 -205 -4 -211 -14 -20 -786 -357 -837 -366 -18
-3 -44 89 -297 1037 -153 572 -278 1043 -278 1048 -1 4 9 5 22 3 12 -3 58 -12
102 -21z m-647 3 c-2 -7 -128 -473 -279 -1035 -178 -666 -278 -1023 -287
-1023 -17 0 -259 105 -566 245 l-258 119 5 195 c7 265 43 418 148 626 217 427
603 732 1083 856 124 31 160 35 154 17z m-1085 -1922 c149 -68 324 -145 387
-171 63 -27 122 -54 131 -62 8 -7 23 -13 33 -13 10 0 74 -20 143 -45 311 -113
577 -153 828 -125 281 33 565 128 1154 387 168 74 312 137 319 140 15 6 13 -3
-25 -137 -45 -158 -133 -333 -246 -486 -71 -97 -236 -257 -348 -336 -117 -84
-342 -196 -473 -238 -116 -36 -235 -63 -252 -56 -7 3 -15 0 -17 -7 -5 -17
-584 -17 -595 -1 -4 6 -27 15 -52 19 -92 15 -292 87 -412 148 -216 109 -398
254 -536 426 -142 176 -235 354 -293 560 -30 108 -33 121 -24 121 3 0 128 -56
278 -124z m590 -1080 c99 -46 271 -105 370 -127 55 -12 58 -14 53 -38 -3 -14
-42 -287 -86 -606 -44 -319 -83 -592 -86 -607 l-6 -28 -289 0 -288 0 5 28 c2
15 52 331 109 702 105 674 112 720 119 720 2 0 46 -20 99 -44z m1752 -707 c91
-378 165 -689 165 -693 0 -3 -125 -5 -277 -4 l-278 3 -138 624 c-75 343 -136
626 -134 628 3 2 49 14 103 28 111 27 242 70 324 107 49 22 56 23 62 9 4 -9
82 -325 173 -702z m-741 526 c16 -65 266 -1207 266 -1215 0 -6 -175 -10 -475
-10 l-475 0 5 23 c2 12 41 288 86 612 44 325 82 595 84 600 1 6 95 10 253 10
243 0 251 -1 256 -20z m-1120 -1324 c-58 -35 -103 -118 -129 -235 -44 -200 24
-435 145 -496 50 -25 90 -25 140 0 130 66 198 339 136 545 -22 70 -75 155
-115 182 l-34 23 749 0 748 0 -30 -28 c-126 -115 -161 -386 -74 -570 86 -183
251 -202 348 -42 42 70 61 135 69 230 11 145 -37 305 -113 377 l-35 33 110 0
111 0 0 -590 0 -590 -1125 0 -1125 0 0 590 0 590 128 0 127 0 -31 -19z"/>
<path d="M2395 1285 c-136 -73 -205 -295 -160 -510 29 -136 109 -245 190 -261
98 -18 197 69 242 215 26 86 24 266 -4 357 -50 159 -173 250 -268 199z"/>
</g>
</svg>
