 <svg version="1.0" xmlns="http://www.w3.org/2000/svg" width="700.000000pt" height="540.000000pt" viewBox="0 0 700.000000 540.000000" preserveAspectRatio="xMidYMid meet">
<metadata>
Created by potrace 1.12, written by Peter Selinger 2001-2015
</metadata>
<g transform="translate(0.000000,540.000000) scale(0.100000,-0.100000)" fill="#000000" stroke="none">
<path d="M3400 4721 c0 -4 -21 -11 -47 -14 -27 -3 -80 -22 -120 -41 -39 -20
-76 -36 -82 -36 -15 0 -221 -206 -221 -221 0 -6 -13 -28 -30 -49 -16 -21 -30
-41 -30 -44 0 -6 -27 -70 -55 -131 -8 -16 -17 -43 -21 -60 -4 -16 -10 -35 -15
-40 -4 -6 -11 -35 -15 -65 -4 -30 -12 -61 -18 -69 -15 -20 -15 -423 0 -442 6
-8 15 -40 18 -71 4 -32 11 -60 16 -63 4 -3 11 -23 15 -45 4 -22 11 -42 16 -46
5 -3 9 -12 9 -20 0 -29 75 -173 98 -187 6 -4 12 -13 12 -20 0 -7 30 -45 66
-85 63 -69 66 -74 59 -110 -4 -20 -10 -41 -14 -47 -4 -5 -13 -37 -20 -70 -7
-33 -17 -64 -21 -70 -4 -5 -11 -31 -14 -57 -4 -27 -11 -48 -15 -48 -5 0 -11
-22 -15 -50 -4 -27 -11 -52 -16 -55 -5 -3 -12 -26 -16 -50 -3 -25 -10 -48 -15
-51 -5 -2 -11 -27 -15 -54 -4 -28 -10 -50 -14 -50 -5 0 -11 -18 -15 -40 -4
-22 -10 -42 -15 -45 -4 -3 -6 -14 -3 -25 3 -11 1 -26 -5 -33 -6 -6 -13 -30
-17 -52 -4 -22 -12 -45 -16 -51 -5 -6 -8 -201 -7 -435 l3 -424 653 -3 653 -2
-3 443 c-2 337 -6 448 -15 459 -7 8 -16 36 -19 62 -4 25 -10 46 -14 46 -4 0
-11 25 -15 55 -3 30 -10 57 -15 60 -5 3 -12 27 -16 53 -3 26 -10 52 -14 57 -4
6 -13 39 -20 75 -6 36 -15 70 -20 75 -4 6 -11 34 -15 62 -4 29 -10 55 -15 58
-4 3 -11 25 -14 50 -4 24 -11 47 -15 50 -5 2 -12 30 -16 61 l-7 56 66 64 c36
36 66 68 66 73 0 4 9 16 20 26 11 10 20 24 20 32 0 7 4 13 9 13 10 0 97 171
93 183 -1 5 2 14 7 21 5 6 12 28 16 49 4 20 11 37 15 37 5 0 11 24 15 53 4 28
12 58 19 66 15 20 16 469 0 479 -6 4 -15 31 -19 59 -4 29 -11 55 -15 58 -5 3
-11 23 -15 45 -4 22 -11 42 -16 46 -5 3 -9 12 -9 20 0 23 -69 160 -91 180 -10
9 -19 24 -19 32 0 8 -46 60 -103 116 -74 73 -115 105 -145 115 -23 8 -42 18
-42 22 0 4 -13 10 -30 14 -16 4 -30 10 -30 15 0 5 -21 12 -47 15 -27 3 -56 10
-65 16 -22 11 -178 12 -178 0z m156 -72 c3 -6 9 -41 12 -78 2 -36 8 -70 12
-76 4 -5 11 -58 15 -118 4 -59 11 -109 15 -112 5 -3 11 -57 15 -120 4 -63 11
-115 15 -115 4 0 11 -51 15 -112 4 -62 10 -117 13 -123 4 -5 12 -59 19 -120 7
-60 19 -171 28 -245 9 -74 16 -152 17 -173 0 -21 5 -40 9 -43 32 -20 -54 -74
-88 -55 -10 5 -108 14 -218 20 -110 6 -210 14 -222 17 -20 5 -23 13 -23 55 0
27 4 49 9 49 5 0 12 43 16 95 4 52 11 98 15 100 5 3 11 44 15 93 4 48 11 92
15 97 4 6 13 66 20 135 7 69 16 130 20 135 5 6 11 48 15 95 4 47 11 90 15 95
5 6 11 48 15 95 4 47 11 90 15 95 5 6 11 48 15 95 4 47 11 90 15 95 4 6 10 34
13 63 3 29 9 57 12 62 9 14 132 13 141 -1z m-191 -46 c-3 -21 -10 -54 -15 -73
-5 -19 -14 -71 -19 -115 -6 -44 -18 -123 -26 -175 -8 -52 -20 -138 -28 -190
-23 -155 -38 -242 -48 -287 -5 -24 -14 -87 -19 -140 -6 -54 -15 -109 -20 -123
-5 -14 -12 -62 -15 -108 -4 -45 -11 -85 -16 -88 -5 -3 -9 -20 -9 -38 0 -18 -3
-35 -6 -39 -6 -6 -34 7 -64 29 -8 6 -37 24 -65 39 -169 91 -174 95 -180 144
-4 25 -12 57 -18 70 -17 35 -17 425 1 443 6 6 12 23 12 38 0 24 23 97 69 218
59 159 225 334 381 404 83 38 92 37 85 -9z m363 -8 c186 -92 381 -369 408
-581 4 -27 12 -55 18 -63 14 -18 15 -407 2 -436 -6 -11 -15 -47 -20 -79 l-11
-59 -153 -78 c-84 -43 -161 -81 -172 -84 -20 -6 -19 -11 -40 200 -6 66 -16
129 -20 140 -5 11 -12 67 -16 125 -3 58 -10 110 -14 115 -4 6 -11 57 -15 115
-4 58 -10 110 -14 115 -3 6 -11 62 -18 125 -7 63 -19 174 -28 245 -8 72 -17
148 -18 170 -2 22 -7 48 -12 59 -7 16 -5 18 23 11 17 -3 62 -22 100 -40z
m-792 -1337 c6 -4 33 -20 60 -34 27 -14 51 -29 54 -33 3 -3 16 -12 30 -19 14
-7 39 -21 55 -31 28 -18 52 -20 331 -20 l302 -1 151 76 c83 43 154 74 157 71
9 -9 -48 -120 -88 -169 -21 -26 -38 -51 -38 -55 0 -5 -30 -38 -67 -74 -74 -70
-188 -133 -261 -145 -23 -4 -45 -11 -48 -15 -3 -5 -43 -9 -89 -9 -46 0 -86 4
-89 9 -3 4 -25 11 -48 15 -43 7 -130 44 -136 59 -2 4 -9 7 -16 7 -7 0 -21 9
-31 20 -10 11 -22 20 -27 20 -11 0 -108 96 -125 125 -7 11 -16 28 -19 38 -3 9
-10 17 -15 17 -5 0 -14 10 -20 23 -5 12 -23 45 -39 72 -16 28 -29 55 -29 62
-1 13 24 8 45 -9z m379 -504 c11 -4 32 -6 47 -5 14 1 29 -2 33 -8 3 -6 15 -11
26 -11 18 0 19 -10 19 -360 l0 -360 -276 0 -277 0 7 42 c4 23 11 47 15 53 5 5
15 43 22 83 7 39 16 72 20 72 4 0 10 20 13 45 4 25 11 45 15 45 5 0 11 22 15
50 4 27 10 52 15 54 5 3 12 26 15 51 4 24 11 47 16 50 4 3 11 24 15 48 4 23
11 47 15 52 4 6 13 37 20 70 7 33 17 64 22 70 4 5 8 19 8 31 0 22 3 21 88 -21
48 -24 96 -47 107 -51z m505 37 c0 -17 4 -32 9 -36 5 -3 13 -30 16 -60 4 -30
11 -55 16 -55 4 0 11 -21 15 -47 3 -27 10 -52 14 -58 5 -5 11 -32 15 -60 4
-27 13 -63 20 -80 8 -16 17 -50 20 -75 4 -25 11 -49 15 -55 4 -5 11 -34 15
-62 4 -29 11 -55 15 -58 5 -3 11 -24 15 -48 4 -23 12 -48 18 -55 23 -29 -12
-32 -274 -30 l-264 3 0 365 0 365 28 3 c16 2 34 -2 42 -8 10 -8 15 -8 20 0 4
6 19 10 33 9 15 -2 32 0 37 3 6 3 27 9 48 13 20 4 37 11 37 15 0 5 14 11 30
15 17 4 30 11 30 16 0 5 7 9 15 9 10 0 15 -10 15 -29z m218 -1208 l-3 -358
-580 0 -580 0 -3 358 -2 357 585 0 585 0 -2 -357z"></path>
</g>
</svg>